<?xml version="1.0" standalone="no"?>
<!DOCTYPE svg PUBLIC "-//W3C//DTD SVG 20010904//EN"
 "http://www.w3.org/TR/2001/REC-SVG-20010904/DTD/svg10.dtd">
<svg version="1.0" xmlns="http://www.w3.org/2000/svg"
 width="554.000000pt" height="647.000000pt" viewBox="0 0 554.000000 647.000000"
 preserveAspectRatio="xMidYMid meet">
<metadata>
Created by potrace 1.15, written by Peter Selinger 2001-2017
</metadata>
<g transform="translate(0.000000,647.000000) scale(0.100000,-0.100000)"
fill="#000000" stroke="none">
<path d="M2525 6271 c-33 -10 -136 -46 -230 -79 -93 -33 -291 -103 -440 -155
-914 -323 -915 -323 -915 -338 0 -25 50 -52 174 -95 38 -13 74 -27 80 -32 6
-5 52 -23 101 -42 50 -18 158 -59 240 -91 83 -32 299 -114 480 -183 182 -69
364 -140 405 -157 148 -61 164 -64 230 -51 32 7 260 93 507 191 791 314 1005
395 1017 384 3 -4 6 -171 6 -372 l0 -366 -27 -25 c-14 -14 -32 -40 -40 -57
-15 -38 -5 -72 40 -131 l25 -33 -30 -87 c-35 -102 -48 -233 -28 -282 21 -50
55 -70 120 -70 63 0 79 11 105 72 20 49 11 136 -26 257 -16 52 -29 99 -29 105
0 6 14 29 30 50 44 58 42 113 -5 165 l-35 38 -2 418 -3 418 -660 234 c-363
128 -706 247 -762 264 -56 16 -121 38 -145 49 -53 24 -105 24 -183 1z"/>
<path d="M1455 5233 c-15 -216 6 -387 62 -497 82 -163 322 -309 642 -391 390
-100 865 -56 1221 113 206 97 319 208 365 358 24 77 36 237 28 387 l-6 139
-31 -6 c-17 -4 -166 -61 -331 -128 -638 -257 -720 -288 -781 -288 -61 0 -240
54 -304 91 -19 12 -104 47 -190 79 -85 33 -267 102 -405 154 -137 53 -253 96
-257 96 -3 0 -9 -48 -13 -107z"/>
<path d="M978 4075 c-5 -5 -8 -46 -8 -92 l0 -83 -161 0 -161 0 6 -457 c3 -252
6 -868 6 -1370 l0 -911 293 -5 c376 -6 588 -25 872 -78 116 -22 368 -75 398
-85 16 -5 17 11 17 240 l0 244 -47 16 c-120 38 -335 67 -668 91 -126 9 -264
19 -305 23 l-75 7 2 1154 c1 634 4 1156 7 1158 11 11 153 2 286 -17 178 -27
527 -97 792 -160 299 -71 313 -74 367 -60 48 12 121 54 121 69 0 33 -453 138
-1030 241 -352 62 -691 98 -712 75z"/>
<path d="M4430 4073 c-572 -54 -1337 -201 -1557 -299 -66 -29 -63 -36 32 -89
70 -40 87 -42 141 -19 88 37 354 97 809 183 205 39 490 81 548 81 l57 0 0
-1160 0 -1160 -22 0 c-41 0 -440 -30 -548 -40 -281 -28 -429 -51 -548 -86
l-53 -15 7 -237 c3 -130 8 -239 11 -241 2 -3 92 12 201 33 550 106 607 113
1048 126 186 6 340 13 343 15 17 17 29 2192 14 2568 l-6 167 -47 0 c-26 0 -94
3 -152 6 l-106 7 -4 72 c-3 39 -8 77 -12 83 -7 11 -72 14 -156 5z"/>
<path d="M2670 3610 c-79 -9 -208 -45 -284 -78 -129 -58 -283 -186 -363 -303
-102 -148 -153 -321 -153 -515 0 -256 80 -482 272 -770 122 -182 139 -227 147
-374 l6 -115 305 -2 c168 -1 380 0 471 4 l166 6 11 126 c5 69 18 145 27 168 9
22 50 88 90 145 136 189 235 398 278 583 29 127 29 337 -2 450 -28 104 -89
231 -152 316 -186 252 -511 394 -819 359z m282 -169 c246 -63 454 -258 527
-495 46 -150 49 -276 10 -446 -39 -171 -101 -300 -245 -516 -109 -163 -135
-223 -149 -342 -5 -43 -12 -65 -24 -71 -9 -4 -144 -9 -300 -10 -324 -1 -331 0
-331 67 0 46 -24 140 -51 201 -11 25 -61 106 -110 179 -197 290 -267 495 -256
746 6 132 27 212 87 325 102 190 297 324 545 375 60 12 227 5 297 -13z"/>
<path d="M2751 3016 c-42 -67 -120 -229 -115 -238 3 -4 68 -8 145 -8 140 0
140 0 133 22 -16 53 -116 247 -129 251 -9 4 -22 -6 -34 -27z"/>
<path d="M2617 2493 c-4 -124 -7 -376 -7 -560 l0 -333 154 0 154 0 7 549 c4
302 4 554 1 560 -5 7 -58 11 -155 11 l-148 0 -6 -227z"/>
<path d="M2605 1411 c-239 -7 -252 -10 -285 -64 -26 -42 -25 -92 2 -130 16
-22 25 -53 29 -100 8 -83 27 -107 96 -118 77 -13 651 -11 676 2 12 6 34 23 48
36 23 21 26 31 22 63 -4 30 2 53 27 105 25 51 31 73 26 99 -7 36 -47 83 -81
96 -32 12 -317 18 -560 11z"/>
<path d="M1234 761 c-51 -23 -85 -70 -92 -126 -5 -45 -17 -55 -68 -55 -34 0
-74 -44 -74 -81 0 -151 251 -228 407 -124 58 38 89 81 99 133 5 27 11 32 28
30 20 -3 21 -10 24 -100 l3 -98 29 0 30 0 0 206 0 205 -27 -3 c-28 -3 -28 -4
-31 -80 -3 -73 -4 -78 -25 -78 -18 0 -25 9 -35 44 -31 117 -158 177 -268 127z
m147 -47 c18 -9 38 -32 50 -57 27 -62 25 -67 -26 -67 -37 0 -45 3 -45 19 0 10
-10 31 -22 46 -19 25 -26 27 -70 23 -26 -3 -48 -3 -48 0 0 3 10 16 22 29 26
28 93 31 139 7z m-196 -199 c53 -33 104 -33 144 1 24 20 39 25 73 22 39 -3 43
-5 40 -27 -4 -36 -45 -85 -89 -107 -21 -10 -68 -20 -105 -22 -54 -3 -76 0
-113 18 -65 31 -93 91 -59 124 22 23 63 19 109 -9z"/>
<path d="M4295 684 c-45 -23 -66 -45 -86 -89 -37 -80 -15 -209 42 -249 15 -10
44 -16 77 -16 43 0 58 5 77 24 45 45 45 121 0 170 -20 21 -33 26 -74 26 -27 0
-53 -4 -56 -10 -10 -15 -25 -12 -25 6 0 48 64 104 118 104 75 0 92 -32 92
-170 0 -94 2 -103 25 -125 33 -34 117 -35 165 -2 57 38 74 70 78 146 6 96 -19
150 -81 180 -27 13 -60 21 -79 19 -28 -3 -34 -7 -36 -31 -3 -28 -2 -29 28 -22
66 15 115 -51 108 -147 -3 -47 -10 -64 -33 -88 -31 -32 -83 -41 -103 -17 -6 7
-13 63 -16 125 -3 61 -10 121 -16 132 -25 47 -142 67 -205 34z"/>
<path d="M1740 623 c0 -58 -3 -70 -26 -94 -30 -31 -42 -95 -24 -128 30 -57
123 -77 193 -42 37 19 37 19 37 -1 0 -19 5 -20 61 -16 54 4 66 9 90 36 24 26
29 42 29 81 0 73 -47 111 -136 111 -21 0 -24 5 -24 35 l0 35 50 0 c47 0 50 2
50 25 l0 25 -150 0 -150 0 0 -67z m140 -146 c0 -61 -22 -89 -67 -85 -43 4 -79
44 -68 77 12 38 34 51 86 51 l49 0 0 -43z"/>
<path d="M2162 513 l3 -178 27 -3 27 -3 3 148 3 148 63 3 62 3 0 -136 0 -135
-105 -52 c-58 -29 -105 -55 -105 -58 0 -4 6 -14 13 -24 12 -16 21 -13 132 41
l120 58 5 150 5 150 38 3 c34 3 37 6 37 33 l0 29 -165 0 -165 0 2 -177z"/>
<path d="M3184 677 c-2 -7 -3 -87 -2 -177 l3 -165 113 -3 c110 -3 112 -3 112
-26 0 -35 -34 -71 -78 -84 -132 -40 -267 41 -286 171 -8 52 14 130 46 164 17
18 20 28 12 40 -19 30 -33 25 -64 -24 -77 -120 -62 -255 38 -345 57 -52 117
-72 200 -66 105 8 177 57 188 129 6 36 8 38 55 44 54 8 101 35 133 78 30 41
30 163 0 203 -43 58 -69 69 -157 69 l-82 0 -3 -147 -3 -148 -84 0 -85 0 0 150
0 150 -25 0 c-14 0 -28 -6 -31 -13z m410 -78 c20 -24 26 -41 26 -81 0 -84 -40
-128 -115 -128 l-35 0 0 120 0 120 49 0 c43 0 53 -4 75 -31z"/>
<path d="M3787 683 c-4 -3 -7 -33 -7 -66 0 -52 -4 -64 -31 -95 -28 -32 -31
-40 -25 -80 11 -78 56 -107 160 -103 18 1 40 13 62 35 30 30 34 40 34 85 l0
51 39 0 c49 0 71 -26 71 -86 0 -83 -61 -124 -187 -124 -101 0 -149 -14 -190
-55 -42 -42 -47 -95 -9 -95 18 0 25 7 29 30 9 44 52 61 176 69 122 8 174 28
208 80 30 44 37 89 24 138 -18 66 -41 86 -102 93 -54 5 -54 5 -54 40 0 34 1
35 46 38 43 3 46 5 41 27 l-4 25 -137 0 c-76 0 -141 -3 -144 -7z"/>
</g>
</svg>
